<svg width="241" height="291" viewBox="0 0 241 291" fill="none" xmlns="http://www.w3.org/2000/svg">
<path d="M1.2517e-06 291C1.2517e-06 276 1.16667 262.5 3.5 250.5C5.83333 238.167 9.83333 226.833 15.5 216.5C21.5 206.167 29.5 196.5 39.5 187.5C49.8333 178.5 62.8333 169.667 78.5 161C92.1667 153.667 104.167 147.333 114.5 142C125.167 136.333 134 131.167 141 126.5C148 121.833 153.333 117.167 157 112.5C160.667 107.5 162.5 101.833 162.5 95.5C162.5 85.5 158.5 77 150.5 70C142.5 62.6667 131 59 116 59C108 59 100.667 60.1667 94 62.5C87.3333 64.5 81 67.3333 75 71C69.3333 74.6667 64 78.8333 59 83.5C54.3333 87.8333 50 92.5 46 97.5L3 48C7.33334 43.3333 13.5 38.3333 21.5 33C29.5 27.3333 38.8333 22.1666 49.5 17.5C60.5 12.5 72.5 8.49998 85.5 5.49998C98.8333 2.16665 113 0.499985 128 0.499985C145 0.499985 160.167 2.66665 173.5 6.99999C186.833 11 198 16.8333 207 24.5C216.333 31.8333 223.333 40.8333 228 51.5C233 61.8333 235.5 73.1667 235.5 85.5C235.5 97.1667 233.333 107.5 229 116.5C224.667 125.5 219.167 133.5 212.5 140.5C205.833 147.5 198.5 153.667 190.5 159C182.833 164 175.333 168.5 168 172.5C162 175.833 155.167 179.667 147.5 184C139.833 188.333 132.167 193.167 124.5 198.5C117.167 203.5 110.333 208.833 104 214.5C97.6667 219.833 92.8333 225.167 89.5 230.5H241V291H1.2517e-06Z" fill="#FFBDBD" fill-opacity="0.2"/>
</svg>
