<svg width="222" height="327" viewBox="0 0 222 327" fill="none" xmlns="http://www.w3.org/2000/svg">
<path d="M159.45 153.8C178.05 157.1 193.05 166.1 204.45 180.8C216.15 195.2 222 212.9 222 233.9C222 248 219.15 260.75 213.45 272.15C208.05 283.55 200.25 293.15 190.05 300.95C180.15 309.05 168 315.2 153.6 319.4C139.2 323.9 123 326.15 105 326.15C82.2 326.15 61.95 322.4 44.25 314.9C26.85 307.7 12.3 297.05 0.6 282.95L34.8 240.2C42.6 250.1 51.9 257.75 62.7 263.15C73.5 268.55 87 271.25 103.2 271.25C121.5 271.25 135.45 267.65 145.05 260.45C154.65 253.25 159.45 242.15 159.45 227.15C159.45 211.55 153.9 199.55 142.8 191.15C131.7 182.75 114.9 178.55 92.4 178.55H79.8V133.55H93.75C112.35 133.55 126.75 129.5 136.95 121.4C147.15 113 152.25 102.35 152.25 89.45C152.25 77.15 148.05 68 139.65 62C131.25 56 120.3 53 106.8 53C93 53 80.55 56.15 69.45 62.45C58.65 68.75 49.8 77.6 42.9 89L5.1 46.7C9.6 39.8 15.6 33.65 23.1 28.25C30.6 22.55 39 17.75 48.3 13.85C57.9 9.64998 68.25 6.49998 79.35 4.39999C90.45 1.99999 101.85 0.799984 113.55 0.799984C128.85 0.799984 142.8 2.74999 155.4 6.64999C168 10.55 178.8 15.95 187.8 22.85C197.1 29.75 204.15 38.15 208.95 48.05C214.05 57.65 216.6 68.45 216.6 80.45C216.6 89.45 215.25 98 212.55 106.1C209.85 114.2 205.95 121.55 200.85 128.15C195.75 134.75 189.6 140.3 182.4 144.8C175.5 149.3 167.85 152.3 159.45 153.8Z" fill="#E7F9FD" fill-opacity="0.8"/>
</svg>
