<svg width="46" height="46" viewBox="0 0 46 46" fill="none" xmlns="http://www.w3.org/2000/svg">
<path d="M31.7735 20.491C28.8699 20.491 28.4551 23.3946 28.4551 23.3946H34.6771C34.6771 23.4776 34.76 20.491 31.7735 20.491Z" fill="#F49595"/>
<path d="M17.5876 23.4776H12.0293V28.5381H17.0069C17.0898 28.5381 17.2558 28.5381 17.3387 28.5381C18.1683 28.5381 19.6616 28.2892 19.6616 26.0493C19.5786 23.3946 17.5876 23.4776 17.5876 23.4776Z" fill="#F49595"/>
<path d="M22.8139 0C10.204 0 0 10.204 0 22.8139C0 35.4238 10.204 45.6278 22.8139 45.6278C35.4238 45.6278 45.6278 35.4238 45.6278 22.8139C45.6278 10.204 35.4238 0 22.8139 0ZM27.6256 14.0202H35.5067V16.3431H27.6256V14.0202ZM23.6435 26.2982C23.6435 32.1054 17.5874 31.9395 17.5874 31.9395H12.0291H11.8632H7.63229V12.8587H11.8632H12.0291H17.5874C20.574 12.8587 22.9798 14.5179 22.9798 17.9193C22.9798 21.3206 20.0762 21.5695 20.0762 21.5695C23.8924 21.5695 23.6435 26.2982 23.6435 26.2982ZM38.3274 25.9664H28.4552C28.4552 29.5336 31.7735 29.2848 31.7735 29.2848C34.926 29.2848 34.8431 27.2108 34.8431 27.2108H38.1614C38.1614 32.6861 31.6076 32.2713 31.6076 32.2713C23.8094 32.2713 24.3072 24.9709 24.3072 24.9709C24.3072 24.9709 24.3072 17.6704 31.6076 17.6704C39.4058 17.7534 38.3274 25.9664 38.3274 25.9664Z" fill="#F49595"/>
<path d="M18.9149 18.2511C18.9149 16.2601 17.5876 16.2601 17.5876 16.2601H16.841H12.0293V20.491H17.2558C18.1683 20.491 18.9149 20.2422 18.9149 18.2511Z" fill="#F49595"/>
</svg>
