<svg width="712" height="879" viewBox="0 0 712 879" fill="none" xmlns="http://www.w3.org/2000/svg">
<g opacity="0.05">
<path d="M128.576 332.488C103.483 307.394 65.8427 307.394 40.7493 332.488C15.6558 357.581 15.6558 395.221 40.7493 420.315L166.216 545.782C178.763 558.329 191.31 564.602 210.13 564.602C228.95 564.602 241.497 558.329 254.043 545.782L693.178 106.647C718.272 81.5536 718.272 43.9135 693.178 18.8201C668.085 -6.27336 630.445 -6.27336 605.351 18.8201L210.13 414.041L128.576 332.488Z" fill="#16C3E9"/>
<path d="M210.135 878.27C454.796 878.27 649.27 683.796 649.27 439.135C649.27 401.495 624.176 376.401 586.536 376.401C548.896 376.401 523.803 401.495 523.803 439.135C523.803 614.789 385.789 752.803 210.135 752.803C34.481 752.803 -103.533 614.789 -103.533 439.135C-103.533 263.481 34.481 125.467 210.135 125.467C247.775 125.467 279.142 131.74 316.782 144.287C348.149 156.834 385.789 138.014 398.336 106.647C410.882 75.2803 392.062 37.6401 360.695 25.0934C310.509 6.27336 260.322 0 210.135 0C-34.526 0 -229 194.474 -229 439.135C-229 683.796 -34.526 878.27 210.135 878.27Z" fill="#16C3E9"/>
</g>
</svg>
