<svg width="47" height="46" viewBox="0 0 47 46" fill="none" xmlns="http://www.w3.org/2000/svg">
<path d="M23.3336 27.0448C25.5786 27.0448 27.3986 25.2249 27.3986 22.9798C27.3986 20.7348 25.5786 18.9148 23.3336 18.9148C21.0885 18.9148 19.2686 20.7348 19.2686 22.9798C19.2686 25.2249 21.0885 27.0448 23.3336 27.0448Z" fill="#F49595"/>
<path d="M28.3945 13.0247H18.1905C16.6972 13.0247 15.3698 13.5224 14.5402 14.352C13.7107 15.1816 13.2129 16.509 13.2129 18.0022V28.2063C13.2129 29.6996 13.7106 31.0269 14.6232 31.9395C15.5358 32.7691 16.7802 33.2668 18.2734 33.2668H28.3945C29.8878 33.2668 31.2151 32.7691 32.0447 31.9395C32.9573 31.1099 33.455 29.7825 33.455 28.2892V18.0022C33.455 16.509 32.9573 15.3475 32.1277 14.352C31.2151 13.4395 29.9707 13.0247 28.3945 13.0247ZM23.334 29.2848C19.8497 29.2848 17.029 26.3812 17.029 22.9798C17.029 19.4955 19.9326 16.6749 23.334 16.6749C26.7353 16.6749 29.7219 19.4955 29.7219 22.9798C29.7219 26.4641 26.8183 29.2848 23.334 29.2848ZM29.8878 17.9193C29.0582 17.9193 28.3945 17.2556 28.3945 16.426C28.3945 15.5964 29.0582 14.9327 29.8878 14.9327C30.7174 14.9327 31.3811 15.5964 31.3811 16.426C31.3811 17.2556 30.7174 17.9193 29.8878 17.9193Z" fill="#F49595"/>
<path d="M23.4994 0C10.8896 0 0.685547 10.204 0.685547 22.8139C0.685547 35.4238 10.8896 45.6278 23.4994 45.6278C36.1093 45.6278 46.3134 35.4238 46.3134 22.8139C46.3963 10.204 36.1093 0 23.4994 0ZM35.6116 28.2063C35.6116 30.3632 34.8649 32.1883 33.5376 33.5157C32.2102 34.8431 30.3851 35.4238 28.3111 35.4238H18.273C16.199 35.4238 14.3739 34.7601 13.0465 33.5157C11.6362 32.1883 10.9725 30.3632 10.9725 28.2063V18.0022C10.9725 13.7713 13.8761 10.7848 18.19 10.7848H28.477C30.634 10.7848 32.3761 11.5314 33.7035 12.8587C35.0308 14.1861 35.6116 15.9283 35.6116 18.0852V28.2063Z" fill="#F49595"/>
</svg>
