<svg width="46" height="46" viewBox="0 0 46 46" fill="none" xmlns="http://www.w3.org/2000/svg">
<path d="M23.186 0C10.5761 0 0.37207 10.204 0.37207 22.8139C0.37207 35.4238 10.5761 45.6278 23.186 45.6278C35.7958 45.6278 45.9999 35.4238 45.9999 22.8139C45.9999 10.204 35.7958 0 23.186 0ZM35.8788 33.9305C35.8788 34.926 35.0492 35.7556 33.9707 35.7556H12.3183C11.2398 35.7556 10.4102 34.926 10.4102 33.9305V11.9462C10.4102 10.9507 11.2398 10.1211 12.3183 10.1211H33.9707C35.0492 10.1211 35.8788 10.9507 35.8788 11.9462V33.9305Z" fill="#F49595"/>
<path d="M27.5827 19.7444C25.5087 19.7444 24.5961 20.9058 24.0984 21.6525V19.9933H20.2822C20.3652 21.0717 20.2822 31.5247 20.2822 31.5247H24.0984V25.0538C24.0984 24.722 24.0984 24.3901 24.2643 24.1412C24.5132 23.4776 25.1768 22.7309 26.2553 22.7309C27.6656 22.7309 28.1634 23.8094 28.1634 25.3856V31.6076H31.9795V24.9708C31.9795 21.4036 30.1544 19.7444 27.5827 19.7444Z" fill="#F49595"/>
<path d="M16.2175 14.435C14.8901 14.435 14.0605 15.2646 14.0605 16.426C14.0605 17.5045 14.8901 18.4171 16.2175 18.4171C17.5449 18.4171 18.3744 17.5045 18.3744 16.426C18.3744 15.2646 17.5449 14.435 16.2175 14.435Z" fill="#F49595"/>
<path d="M18.1257 19.9933H14.3096V31.5246H18.1257V19.9933Z" fill="#F49595"/>
</svg>
