<svg width="723" height="116" viewBox="0 0 723 116" fill="none" xmlns="http://www.w3.org/2000/svg">
<path d="M33.1921 107.405V93.3135H31.4343V99.4072H23.6999V93.3135H21.9421V107.405H23.6999V100.989H31.4343V107.405H33.1921ZM40.8971 107.591C43.8952 107.591 45.7507 105.521 45.7507 102.142C45.7507 98.7529 43.8952 96.6924 40.8971 96.6924C37.8991 96.6924 36.0436 98.7529 36.0436 102.142C36.0436 105.521 37.8991 107.591 40.8971 107.591ZM40.8971 106.077C38.905 106.077 37.7819 104.632 37.7819 102.142C37.7819 99.6416 38.905 98.2061 40.8971 98.2061C42.8893 98.2061 44.0124 99.6416 44.0124 102.142C44.0124 104.632 42.8893 106.077 40.8971 106.077ZM48.3874 107.405H50.0671V100.882C50.0671 99.3975 51.1315 98.2061 52.5085 98.2061C53.8366 98.2061 54.7057 99.0068 54.7057 100.257V107.405H56.3854V100.638C56.3854 99.2998 57.362 98.2061 58.8268 98.2061C60.3112 98.2061 61.0436 98.9678 61.0436 100.521V107.405H62.7233V100.13C62.7233 97.9229 61.5221 96.6924 59.3737 96.6924C57.9186 96.6924 56.7175 97.4248 56.1511 98.5381H55.9948C55.5065 97.4443 54.5104 96.6924 53.0846 96.6924C51.6784 96.6924 50.6237 97.3662 50.1452 98.5381H49.9889V96.8779H48.3874V107.405ZM72.7624 104.681C72.3229 105.608 71.405 106.106 70.0475 106.106C68.2604 106.106 67.0983 104.788 67.0104 102.708V102.63H74.5788V101.985C74.5788 98.7139 72.8503 96.6924 70.0085 96.6924C67.1178 96.6924 65.2624 98.8408 65.2624 102.151C65.2624 105.481 67.0885 107.591 70.0085 107.591C72.3132 107.591 73.9538 106.478 74.4421 104.681H72.7624ZM69.9889 98.1768C71.6589 98.1768 72.7721 99.4072 72.8112 101.272H67.0104C67.1374 99.4072 68.3092 98.1768 69.9889 98.1768Z" fill="#404040"/>
<path fill-rule="evenodd" clip-rule="evenodd" d="M19.3 44.4641H7L48 7.40527L89 44.4641H76.7V77.4053H52.1V52.6994H43.9V77.4053H19.3V44.4641ZM68.5 37.0111L48 18.4817L27.5 37.0111V69.1699H35.7V44.464H60.3V69.1699H68.5V37.0111Z" fill="#D31D15"/>
<path d="M151.199 107.405V94.8955H155.74V93.3135H144.9V94.8955H149.441V107.405H151.199ZM156.775 107.405H158.455V100.882C158.455 99.3975 159.617 98.3232 161.219 98.3232C161.551 98.3232 162.156 98.3818 162.293 98.4209V96.7412C162.078 96.7119 161.727 96.6924 161.453 96.6924C160.057 96.6924 158.846 97.415 158.533 98.4404H158.377V96.8779H156.775V107.405ZM171.072 104.681C170.633 105.608 169.715 106.106 168.357 106.106C166.57 106.106 165.408 104.788 165.32 102.708V102.63H172.889V101.985C172.889 98.7139 171.16 96.6924 168.318 96.6924C165.428 96.6924 163.572 98.8408 163.572 102.151C163.572 105.481 165.398 107.591 168.318 107.591C170.623 107.591 172.264 106.478 172.752 104.681H171.072ZM168.299 98.1768C169.969 98.1768 171.082 99.4072 171.121 101.272H165.32C165.447 99.4072 166.619 98.1768 168.299 98.1768ZM178.455 107.591C179.861 107.591 181.014 106.976 181.697 105.853H181.854V107.405H183.455V100.198C183.455 98.0107 182.02 96.6924 179.451 96.6924C177.205 96.6924 175.545 97.8057 175.32 99.4951H177.02C177.254 98.665 178.133 98.1865 179.393 98.1865C180.965 98.1865 181.775 98.8994 181.775 100.198V101.155L178.738 101.341C176.287 101.487 174.9 102.571 174.9 104.456C174.9 106.38 176.414 107.591 178.455 107.591ZM178.768 106.116C177.547 106.116 176.639 105.491 176.639 104.417C176.639 103.362 177.342 102.806 178.943 102.698L181.775 102.513V103.479C181.775 104.983 180.496 106.116 178.768 106.116ZM187.264 94.1533V96.8779H185.564V98.2842H187.264V104.671C187.264 106.683 188.133 107.483 190.301 107.483C190.633 107.483 190.955 107.444 191.287 107.386V105.97C190.975 105.999 190.809 106.009 190.506 106.009C189.412 106.009 188.943 105.481 188.943 104.241V98.2842H191.287V96.8779H188.943V94.1533H187.264ZM193.826 107.405H195.506V100.882C195.506 99.3975 196.57 98.2061 197.947 98.2061C199.275 98.2061 200.145 99.0068 200.145 100.257V107.405H201.824V100.638C201.824 99.2998 202.801 98.2061 204.266 98.2061C205.75 98.2061 206.482 98.9678 206.482 100.521V107.405H208.162V100.13C208.162 97.9229 206.961 96.6924 204.812 96.6924C203.357 96.6924 202.156 97.4248 201.59 98.5381H201.434C200.945 97.4443 199.949 96.6924 198.523 96.6924C197.117 96.6924 196.062 97.3662 195.584 98.5381H195.428V96.8779H193.826V107.405ZM218.201 104.681C217.762 105.608 216.844 106.106 215.486 106.106C213.699 106.106 212.537 104.788 212.449 102.708V102.63H220.018V101.985C220.018 98.7139 218.289 96.6924 215.447 96.6924C212.557 96.6924 210.701 98.8408 210.701 102.151C210.701 105.481 212.527 107.591 215.447 107.591C217.752 107.591 219.393 106.478 219.881 104.681H218.201ZM215.428 98.1768C217.098 98.1768 218.211 99.4072 218.25 101.272H212.449C212.576 99.4072 213.748 98.1768 215.428 98.1768ZM222.654 107.405H224.334V101.175C224.334 99.3291 225.418 98.2061 227.098 98.2061C228.777 98.2061 229.578 99.1045 229.578 100.999V107.405H231.258V100.589C231.258 98.0889 229.939 96.6924 227.576 96.6924C225.965 96.6924 224.939 97.376 224.412 98.5381H224.256V96.8779H222.654V107.405ZM235.037 94.1533V96.8779H233.338V98.2842H235.037V104.671C235.037 106.683 235.906 107.483 238.074 107.483C238.406 107.483 238.729 107.444 239.061 107.386V105.97C238.748 105.999 238.582 106.009 238.279 106.009C237.186 106.009 236.717 105.481 236.717 104.241V98.2842H239.061V96.8779H236.717V94.1533H235.037Z" fill="#404040"/>
<path d="M182.576 76.243H201.928V53.6633H224.504V34.3092H201.928V11.7295H182.576V34.3092H160V53.6633H182.576V76.243Z" fill="#D31D15"/>
<path d="M472.262 105.823H465.466V93.3135H463.708V107.405H472.262V105.823ZM478.698 107.591C481.696 107.591 483.551 105.521 483.551 102.142C483.551 98.7529 481.696 96.6924 478.698 96.6924C475.7 96.6924 473.844 98.7529 473.844 102.142C473.844 105.521 475.7 107.591 478.698 107.591ZM478.698 106.077C476.706 106.077 475.583 104.632 475.583 102.142C475.583 99.6416 476.706 98.2061 478.698 98.2061C480.69 98.2061 481.813 99.6416 481.813 102.142C481.813 104.632 480.69 106.077 478.698 106.077ZM490.085 107.591C491.54 107.591 492.79 106.897 493.454 105.726H493.61V107.405H495.212V92.6982H493.532V98.5381H493.385C492.79 97.3857 491.549 96.6924 490.085 96.6924C487.409 96.6924 485.661 98.8408 485.661 102.142C485.661 105.452 487.389 107.591 490.085 107.591ZM490.475 98.2061C492.38 98.2061 493.571 99.7295 493.571 102.142C493.571 104.573 492.389 106.077 490.475 106.077C488.551 106.077 487.399 104.603 487.399 102.142C487.399 99.6904 488.561 98.2061 490.475 98.2061ZM502.809 111.448C505.68 111.448 507.497 109.944 507.497 107.591V96.8779H505.895V98.5479H505.739C505.133 97.415 503.835 96.6924 502.36 96.6924C499.655 96.6924 497.946 98.8311 497.946 101.985C497.946 105.14 499.635 107.249 502.36 107.249C503.805 107.249 504.997 106.595 505.661 105.433H505.817V107.503C505.817 109.056 504.694 109.983 502.809 109.983C501.296 109.983 500.358 109.427 500.173 108.567H498.395C498.649 110.306 500.27 111.448 502.809 111.448ZM502.731 105.765C500.778 105.765 499.684 104.28 499.684 101.985C499.684 99.6904 500.778 98.2061 502.731 98.2061C504.674 98.2061 505.856 99.6904 505.856 101.985C505.856 104.28 504.684 105.765 502.731 105.765ZM511.54 94.8467C512.184 94.8467 512.712 94.3193 512.712 93.6748C512.712 93.0303 512.184 92.5029 511.54 92.5029C510.895 92.5029 510.368 93.0303 510.368 93.6748C510.368 94.3193 510.895 94.8467 511.54 94.8467ZM510.7 107.405H512.38V96.8779H510.7V107.405ZM515.583 107.405H517.262V101.175C517.262 99.3291 518.346 98.2061 520.026 98.2061C521.706 98.2061 522.507 99.1045 522.507 100.999V107.405H524.186V100.589C524.186 98.0889 522.868 96.6924 520.505 96.6924C518.893 96.6924 517.868 97.376 517.341 98.5381H517.184V96.8779H515.583V107.405ZM531.598 111.448C534.469 111.448 536.286 109.944 536.286 107.591V96.8779H534.684V98.5479H534.528C533.923 97.415 532.624 96.6924 531.149 96.6924C528.444 96.6924 526.735 98.8311 526.735 101.985C526.735 105.14 528.424 107.249 531.149 107.249C532.594 107.249 533.786 106.595 534.45 105.433H534.606V107.503C534.606 109.056 533.483 109.983 531.598 109.983C530.085 109.983 529.147 109.427 528.962 108.567H527.184C527.438 110.306 529.059 111.448 531.598 111.448ZM531.52 105.765C529.567 105.765 528.473 104.28 528.473 101.985C528.473 99.6904 529.567 98.2061 531.52 98.2061C533.464 98.2061 534.645 99.6904 534.645 101.985C534.645 104.28 533.473 105.765 531.52 105.765Z" fill="#404040"/>
<path fill-rule="evenodd" clip-rule="evenodd" d="M512.215 17.9032V41.98H536.323V82.108H464V25.9288H488.108V17.9032L500.161 5.86475L512.215 17.9032ZM479.8 72.7405H485.827V66.7127H479.8V72.7405ZM485.827 60.6849H479.8V54.6571H485.827V60.6849ZM479.8 48.6295H485.827V42.6017H479.8V48.6295ZM503.908 60.6849H497.881V54.6571H503.908V60.6849ZM497.881 48.6295H503.908V42.6017H497.881V48.6295ZM503.908 36.5738H497.881V30.5461H503.908V36.5738ZM515.962 60.6849H521.988V54.6571H515.962V60.6849Z" fill="#D31D15"/>
<path d="M582.716 103.724C582.901 106.155 584.962 107.737 587.95 107.737C591.173 107.737 593.214 106.087 593.214 103.499C593.214 101.429 592.042 100.296 589.122 99.5635L587.648 99.1729C585.704 98.6748 584.933 98.04 584.933 96.9365C584.933 95.5107 586.173 94.5732 588.048 94.5732C589.806 94.5732 590.997 95.4326 591.241 96.8779H593.009C592.862 94.6025 590.831 92.9814 588.107 92.9814C585.128 92.9814 583.126 94.6025 583.126 96.9951C583.126 98.9971 584.23 100.149 586.778 100.794L588.585 101.263C590.528 101.751 591.407 102.513 591.407 103.714C591.407 105.11 590.011 106.136 588.116 106.136C586.114 106.136 584.708 105.198 584.493 103.724H582.716ZM598.858 107.591C600.265 107.591 601.417 106.976 602.101 105.853H602.257V107.405H603.858V100.198C603.858 98.0107 602.423 96.6924 599.855 96.6924C597.608 96.6924 595.948 97.8057 595.724 99.4951H597.423C597.657 98.665 598.536 98.1865 599.796 98.1865C601.368 98.1865 602.179 98.8994 602.179 100.198V101.155L599.142 101.341C596.691 101.487 595.304 102.571 595.304 104.456C595.304 106.38 596.817 107.591 598.858 107.591ZM599.171 106.116C597.95 106.116 597.042 105.491 597.042 104.417C597.042 103.362 597.745 102.806 599.347 102.698L602.179 102.513V103.479C602.179 104.983 600.9 106.116 599.171 106.116ZM615.167 96.8779H613.37L610.489 105.55H610.333L607.452 96.8779H605.655L609.552 107.405H611.271L615.167 96.8779ZM623.995 104.681C623.556 105.608 622.638 106.106 621.28 106.106C619.493 106.106 618.331 104.788 618.243 102.708V102.63H625.812V101.985C625.812 98.7139 624.083 96.6924 621.241 96.6924C618.351 96.6924 616.495 98.8408 616.495 102.151C616.495 105.481 618.321 107.591 621.241 107.591C623.546 107.591 625.187 106.478 625.675 104.681H623.995ZM621.222 98.1768C622.892 98.1768 624.005 99.4072 624.044 101.272H618.243C618.37 99.4072 619.542 98.1768 621.222 98.1768ZM632.345 107.591C633.8 107.591 635.05 106.897 635.714 105.726H635.87V107.405H637.472V92.6982H635.792V98.5381H635.646C635.05 97.3857 633.81 96.6924 632.345 96.6924C629.669 96.6924 627.921 98.8408 627.921 102.142C627.921 105.452 629.65 107.591 632.345 107.591ZM632.735 98.2061C634.64 98.2061 635.831 99.7295 635.831 102.142C635.831 104.573 634.65 106.077 632.735 106.077C630.812 106.077 629.659 104.603 629.659 102.142C629.659 99.6904 630.821 98.2061 632.735 98.2061ZM648.351 107.405V93.3135H646.593V107.405H648.351ZM652.433 94.1533V96.8779H650.733V98.2842H652.433V104.671C652.433 106.683 653.302 107.483 655.47 107.483C655.802 107.483 656.124 107.444 656.456 107.386V105.97C656.144 105.999 655.978 106.009 655.675 106.009C654.581 106.009 654.112 105.481 654.112 104.241V98.2842H656.456V96.8779H654.112V94.1533H652.433ZM665.812 104.681C665.372 105.608 664.454 106.106 663.097 106.106C661.31 106.106 660.148 104.788 660.06 102.708V102.63H667.628V101.985C667.628 98.7139 665.9 96.6924 663.058 96.6924C660.167 96.6924 658.312 98.8408 658.312 102.151C658.312 105.481 660.138 107.591 663.058 107.591C665.362 107.591 667.003 106.478 667.491 104.681H665.812ZM663.038 98.1768C664.708 98.1768 665.821 99.4072 665.86 101.272H660.06C660.187 99.4072 661.358 98.1768 663.038 98.1768ZM670.265 107.405H671.944V100.882C671.944 99.3975 673.009 98.2061 674.386 98.2061C675.714 98.2061 676.583 99.0068 676.583 100.257V107.405H678.263V100.638C678.263 99.2998 679.239 98.2061 680.704 98.2061C682.189 98.2061 682.921 98.9678 682.921 100.521V107.405H684.601V100.13C684.601 97.9229 683.4 96.6924 681.251 96.6924C679.796 96.6924 678.595 97.4248 678.028 98.5381H677.872C677.384 97.4443 676.388 96.6924 674.962 96.6924C673.556 96.6924 672.501 97.3662 672.023 98.5381H671.866V96.8779H670.265V107.405ZM687.423 99.7588C687.423 101.282 688.321 102.132 690.294 102.61L692.101 103.05C693.224 103.323 693.771 103.812 693.771 104.534C693.771 105.501 692.755 106.175 691.339 106.175C689.991 106.175 689.151 105.608 688.868 104.72H687.14C687.325 106.468 688.937 107.591 691.28 107.591C693.673 107.591 695.499 106.292 695.499 104.407C695.499 102.894 694.542 102.034 692.56 101.556L690.939 101.165C689.698 100.862 689.112 100.413 689.112 99.6904C689.112 98.7529 690.089 98.1182 691.339 98.1182C692.608 98.1182 693.429 98.6748 693.653 99.5146H695.314C695.089 97.7861 693.556 96.6924 691.349 96.6924C689.112 96.6924 687.423 98.0107 687.423 99.7588Z" fill="#404040"/>
<path fill-rule="evenodd" clip-rule="evenodd" d="M623.524 18.5718H652.844C656.069 18.5718 658.708 21.211 658.708 24.4366V71.3556L638.184 62.5583L617.66 71.3556V24.4366C617.66 21.211 620.299 18.5718 623.524 18.5718ZM638.184 56.1656L652.844 62.5583V24.4366H623.524V62.5583L638.184 56.1656Z" fill="#D31D15"/>
<path d="M310.755 107.405V101.302H316.995V99.7393H310.755V94.8955H317.551V93.3135H308.997V107.405H310.755ZM321.106 94.8467C321.751 94.8467 322.278 94.3193 322.278 93.6748C322.278 93.0303 321.751 92.5029 321.106 92.5029C320.462 92.5029 319.934 93.0303 319.934 93.6748C319.934 94.3193 320.462 94.8467 321.106 94.8467ZM320.266 107.405H321.946V96.8779H320.266V107.405ZM325.149 107.405H326.829V101.175C326.829 99.3291 327.913 98.2061 329.592 98.2061C331.272 98.2061 332.073 99.1045 332.073 100.999V107.405H333.753V100.589C333.753 98.0889 332.434 96.6924 330.071 96.6924C328.46 96.6924 327.434 97.376 326.907 98.5381H326.751V96.8779H325.149V107.405ZM339.758 107.591C341.165 107.591 342.317 106.976 343.001 105.853H343.157V107.405H344.758V100.198C344.758 98.0107 343.323 96.6924 340.755 96.6924C338.508 96.6924 336.848 97.8057 336.624 99.4951H338.323C338.557 98.665 339.436 98.1865 340.696 98.1865C342.268 98.1865 343.079 98.8994 343.079 100.198V101.155L340.042 101.341C337.591 101.487 336.204 102.571 336.204 104.456C336.204 106.38 337.717 107.591 339.758 107.591ZM340.071 106.116C338.85 106.116 337.942 105.491 337.942 104.417C337.942 103.362 338.645 102.806 340.247 102.698L343.079 102.513V103.479C343.079 104.983 341.799 106.116 340.071 106.116ZM347.864 107.405H349.544V101.175C349.544 99.3291 350.628 98.2061 352.307 98.2061C353.987 98.2061 354.788 99.1045 354.788 100.999V107.405H356.467V100.589C356.467 98.0889 355.149 96.6924 352.786 96.6924C351.174 96.6924 350.149 97.376 349.622 98.5381H349.466V96.8779H347.864V107.405ZM368.255 100.101C367.962 98.2256 366.399 96.6924 363.841 96.6924C360.891 96.6924 359.016 98.8213 359.016 102.103C359.016 105.452 360.901 107.591 363.85 107.591C366.38 107.591 367.952 106.165 368.255 104.231H366.555C366.243 105.423 365.257 106.077 363.841 106.077C361.966 106.077 360.755 104.534 360.755 102.103C360.755 99.7197 361.946 98.2061 363.841 98.2061C365.354 98.2061 366.282 99.0557 366.555 100.101H368.255ZM377.708 104.681C377.268 105.608 376.35 106.106 374.993 106.106C373.206 106.106 372.044 104.788 371.956 102.708V102.63H379.524V101.985C379.524 98.7139 377.796 96.6924 374.954 96.6924C372.063 96.6924 370.208 98.8408 370.208 102.151C370.208 105.481 372.034 107.591 374.954 107.591C377.258 107.591 378.899 106.478 379.387 104.681H377.708ZM374.934 98.1768C376.604 98.1768 377.717 99.4072 377.757 101.272H371.956C372.083 99.4072 373.255 98.1768 374.934 98.1768Z" fill="#404040"/>
<path fill-rule="evenodd" clip-rule="evenodd" d="M343.98 7.33105C323.749 7.33105 307.33 23.7527 307.33 43.9865C307.33 64.2202 323.749 80.6419 343.98 80.6419C364.211 80.6419 380.63 64.2202 380.63 43.9865C380.63 23.7527 364.211 7.33105 343.98 7.33105ZM343.98 73.3108C327.817 73.3108 314.66 60.1515 314.66 43.9865C314.66 27.8215 327.817 14.6622 343.98 14.6622C360.143 14.6622 373.3 27.8215 373.3 43.9865C373.3 60.1515 360.143 73.3108 343.98 73.3108ZM336.54 34.7126C336.54 37.3885 338.629 39.1846 345.116 40.8341C351.567 42.5202 358.493 45.3061 358.53 53.3703C358.493 59.2718 354.095 62.4608 348.525 63.5238V69.6452H339.948V63.4138C334.451 62.2775 329.833 58.7586 329.467 52.5272H335.77C336.1 55.8995 338.409 58.5387 344.273 58.5387C350.54 58.5387 351.97 55.3863 351.97 53.4436C351.97 50.8044 350.54 48.2751 343.394 46.589C335.441 44.6829 329.98 41.3839 329.98 34.8226C329.98 29.2876 334.414 25.6954 339.948 24.5224V18.3277H348.488V24.5958C354.425 26.062 357.431 30.5706 357.614 35.4824H351.347C351.2 31.8902 349.294 29.4709 344.237 29.4709C339.435 29.4709 336.54 31.6336 336.54 34.7126Z" fill="#D31D15"/>
</svg>
