<svg width="34" height="33" viewBox="0 0 34 33" fill="none" xmlns="http://www.w3.org/2000/svg">
<ellipse cx="17" cy="16.5" rx="17" ry="16.5" fill="#266FA5"/>
<path d="M18.0563 15.896C18.643 15.9173 19.1603 16.088 19.6083 16.408C20.067 16.728 20.419 17.1493 20.6643 17.672C20.9096 18.184 21.0323 18.7333 21.0323 19.32C21.0323 20.0987 20.8563 20.7813 20.5043 21.368C20.1523 21.944 19.6563 22.3867 19.0163 22.696C18.3763 23.0053 17.6296 23.16 16.7763 23.16C16.3923 23.16 16.0083 23.112 15.6243 23.016C15.2403 22.92 14.9043 22.792 14.6163 22.632C14.2216 22.4187 14.0243 22.1307 14.0243 21.768C14.0243 21.512 14.115 21.2773 14.2963 21.064C14.4776 20.8507 14.6963 20.744 14.9523 20.744C15.1656 20.744 15.395 20.824 15.6403 20.984C16.099 21.336 16.6056 21.512 17.1603 21.512C17.491 21.512 17.8056 21.432 18.1043 21.272C18.403 21.1013 18.643 20.8613 18.8243 20.552C19.0163 20.232 19.1123 19.8693 19.1123 19.464C19.1123 18.888 18.9363 18.44 18.5843 18.12C18.243 17.8 17.827 17.64 17.3363 17.64C17.123 17.64 16.9363 17.6613 16.7763 17.704C16.6163 17.7467 16.5203 17.7733 16.4883 17.784C16.211 17.8693 15.9816 17.912 15.8003 17.912C15.5656 17.912 15.379 17.832 15.2403 17.672C15.1016 17.5013 15.0323 17.2933 15.0323 17.048C15.0323 16.8987 15.059 16.7653 15.1123 16.648C15.1656 16.5307 15.2563 16.4027 15.3843 16.264L17.8643 13.56H14.6963C14.4403 13.56 14.227 13.4747 14.0563 13.304C13.8856 13.1333 13.8003 12.92 13.8003 12.664C13.8003 12.4187 13.8856 12.216 14.0563 12.056C14.227 11.8853 14.4403 11.8 14.6963 11.8H19.5923C19.9123 11.8 20.1576 11.8907 20.3283 12.072C20.499 12.2427 20.5843 12.472 20.5843 12.76C20.5843 13.016 20.4563 13.272 20.2003 13.528L18.0563 15.896Z" fill="white"/>
</svg>
