<svg width="23" height="22" viewBox="0 0 23 22" fill="none" xmlns="http://www.w3.org/2000/svg">
<ellipse cx="11.0786" cy="10.7528" rx="11.0786" ry="10.7528" fill="#266FA5"/>
<path d="M10.8512 9.098C11.3018 9.098 11.7438 9.23667 12.1772 9.514C12.6192 9.78267 12.9788 10.151 13.2562 10.619C13.5335 11.0783 13.6722 11.5767 13.6722 12.114C13.6722 12.66 13.5335 13.167 13.2562 13.635C12.9875 14.0943 12.6235 14.4583 12.1642 14.727C11.7048 14.9957 11.1978 15.13 10.6432 15.13C10.0452 15.13 9.51217 14.9653 9.04417 14.636C8.57617 14.298 8.21651 13.8603 7.96517 13.323C7.71384 12.777 7.58817 12.1963 7.58817 11.581C7.58817 10.9483 7.69651 10.255 7.91317 9.501C8.13851 8.73833 8.54151 8.019 9.12217 7.343C9.71151 6.667 10.5088 6.186 11.5142 5.9C11.6182 5.874 11.7178 5.861 11.8132 5.861C12.0385 5.861 12.2248 5.92167 12.3722 6.043C12.5195 6.15567 12.5932 6.33767 12.5932 6.589C12.5932 6.77967 12.5282 6.94867 12.3982 7.096C12.2768 7.23467 12.1122 7.33433 11.9042 7.395C11.3582 7.551 10.8512 7.82833 10.3832 8.227C9.92384 8.62567 9.58584 9.10233 9.36917 9.657C9.80251 9.28433 10.2965 9.098 10.8512 9.098ZM10.6432 13.7C11.0505 13.7 11.3972 13.5483 11.6832 13.245C11.9692 12.9417 12.1122 12.5647 12.1122 12.114C12.1122 11.6633 11.9692 11.2863 11.6832 10.983C11.3972 10.6797 11.0505 10.528 10.6432 10.528C10.2272 10.528 9.87617 10.6797 9.59017 10.983C9.31284 11.2863 9.17417 11.6633 9.17417 12.114C9.17417 12.5647 9.31284 12.9417 9.59017 13.245C9.87617 13.5483 10.2272 13.7 10.6432 13.7Z" fill="white"/>
</svg>
