<svg width="34" height="33" viewBox="0 0 34 33" fill="none" xmlns="http://www.w3.org/2000/svg">
<ellipse cx="17" cy="16.5" rx="17" ry="16.5" fill="#266FA5"/>
<path d="M17.7659 11.8C18.0326 11.8 18.2566 11.896 18.4379 12.088C18.6193 12.2693 18.7099 12.4987 18.7099 12.776V22.024C18.7099 22.3013 18.6086 22.536 18.4059 22.728C18.2033 22.9093 17.9526 23 17.6539 23C17.3553 23 17.1099 22.9093 16.9179 22.728C16.7259 22.536 16.6299 22.3013 16.6299 22.024V14.44L15.6379 15.048C15.4779 15.144 15.3073 15.192 15.1259 15.192C14.8593 15.192 14.6299 15.0907 14.4379 14.888C14.2566 14.6853 14.1659 14.4613 14.1659 14.216C14.1659 14.0453 14.2086 13.8853 14.2939 13.736C14.3899 13.5867 14.5126 13.4693 14.6619 13.384L17.0779 11.944C17.2593 11.848 17.4886 11.8 17.7659 11.8Z" fill="white"/>
</svg>
