<svg width="23" height="22" viewBox="0 0 23 22" fill="none" xmlns="http://www.w3.org/2000/svg">
<ellipse cx="11.0786" cy="10.7528" rx="11.0786" ry="10.7528" fill="#266FA5"/>
<path d="M13.4632 11.1C13.6712 11.1 13.8445 11.1693 13.9832 11.308C14.1218 11.4467 14.1912 11.62 14.1912 11.828C14.1912 12.0273 14.1218 12.1963 13.9832 12.335C13.8445 12.465 13.6712 12.53 13.4632 12.53H12.9172V14.207C12.9172 14.4323 12.8392 14.623 12.6832 14.779C12.5358 14.9263 12.3495 15 12.1242 15C11.9075 15 11.7255 14.9263 11.5782 14.779C11.4308 14.623 11.3572 14.4323 11.3572 14.207V12.53H7.97716C7.78649 12.53 7.60882 12.4563 7.44416 12.309C7.27949 12.153 7.19716 11.971 7.19716 11.763C7.19716 11.5723 7.26216 11.399 7.39216 11.243L11.5002 6.212C11.6648 6.004 11.8815 5.9 12.1502 5.9C12.3668 5.9 12.5488 5.978 12.6962 6.134C12.8435 6.28133 12.9172 6.46767 12.9172 6.693V11.1H13.4632ZM9.25116 11.1H11.3572V8.5L9.25116 11.1Z" fill="white"/>
</svg>
