<svg width="34" height="33" viewBox="0 0 34 33" fill="none" xmlns="http://www.w3.org/2000/svg">
<ellipse cx="17" cy="16.5" rx="17" ry="16.5" fill="#266FA5"/>
<path d="M20.4109 21.24C20.6669 21.24 20.8803 21.3253 21.0509 21.496C21.2216 21.6667 21.3069 21.88 21.3069 22.136C21.3069 22.3813 21.2216 22.5893 21.0509 22.76C20.8803 22.92 20.6669 23 20.4109 23H14.9709C14.6936 23 14.4749 22.9147 14.3149 22.744C14.1549 22.5733 14.0749 22.3547 14.0749 22.088C14.0749 21.8213 14.1709 21.5867 14.3629 21.384L17.8509 17.656C18.2456 17.2293 18.5549 16.8027 18.7789 16.376C19.0136 15.9387 19.1309 15.5387 19.1309 15.176C19.1309 14.696 18.9603 14.28 18.6189 13.928C18.2776 13.576 17.8829 13.4 17.4349 13.4C17.1256 13.4 16.8109 13.5067 16.4909 13.72C16.1816 13.9227 15.8989 14.1947 15.6429 14.536C15.4509 14.792 15.2056 14.92 14.9069 14.92C14.6723 14.92 14.4536 14.8293 14.2509 14.648C14.0589 14.4667 13.9629 14.264 13.9629 14.04C13.9629 13.88 14.0163 13.72 14.1229 13.56C14.2296 13.3893 14.3896 13.1973 14.6029 12.984C15.0083 12.5787 15.4776 12.2533 16.0109 12.008C16.5443 11.7627 17.0563 11.64 17.5469 11.64C18.2509 11.64 18.8696 11.7893 19.4029 12.088C19.9363 12.3867 20.3469 12.7973 20.6349 13.32C20.9229 13.8427 21.0669 14.4347 21.0669 15.096C21.0669 15.7467 20.8909 16.4187 20.5389 17.112C20.1976 17.7947 19.7336 18.4507 19.1469 19.08L17.1149 21.24H20.4109Z" fill="white"/>
</svg>
