<svg width="310" height="58" viewBox="0 0 310 58" fill="none" xmlns="http://www.w3.org/2000/svg">
<path d="M1.12476 1.99993C121.394 55.3991 188.848 54.7506 309.125 2.97461" stroke="#266FA5" stroke-width="3"/>
<ellipse cx="155.123" cy="41.4746" rx="17" ry="16.5" fill="#266FA5"/>
<path d="M155.889 36.7746C156.156 36.7746 156.38 36.8706 156.561 37.0626C156.743 37.2439 156.833 37.4733 156.833 37.7506V46.9986C156.833 47.2759 156.732 47.5106 156.529 47.7026C156.327 47.8839 156.076 47.9746 155.777 47.9746C155.479 47.9746 155.233 47.8839 155.041 47.7026C154.849 47.5106 154.753 47.2759 154.753 46.9986V39.4146L153.761 40.0226C153.601 40.1186 153.431 40.1666 153.249 40.1666C152.983 40.1666 152.753 40.0653 152.561 39.8626C152.38 39.6599 152.289 39.4359 152.289 39.1906C152.289 39.0199 152.332 38.8599 152.417 38.7106C152.513 38.5613 152.636 38.4439 152.785 38.3586L155.201 36.9186C155.383 36.8226 155.612 36.7746 155.889 36.7746Z" fill="white"/>
</svg>
