<svg width="23" height="22" viewBox="0 0 23 22" fill="none" xmlns="http://www.w3.org/2000/svg">
<ellipse cx="11.0786" cy="10.7528" rx="11.0786" ry="10.7528" fill="#266FA5"/>
<path d="M10.44 8.89C11.012 8.89 11.5277 9.02433 11.987 9.293C12.455 9.553 12.819 9.91267 13.079 10.372C13.3477 10.8313 13.482 11.3427 13.482 11.906C13.482 12.4867 13.3174 13.024 12.988 13.518C12.6587 14.012 12.221 14.4063 11.675 14.701C11.129 14.987 10.5397 15.13 9.90705 15.13C9.56905 15.13 9.21805 15.078 8.85405 14.974C8.49871 14.87 8.20838 14.727 7.98305 14.545C7.87905 14.4583 7.79238 14.337 7.72305 14.181C7.65371 14.025 7.61905 13.8777 7.61905 13.739C7.61905 13.583 7.68405 13.4443 7.81405 13.323C7.95271 13.193 8.13038 13.128 8.34705 13.128C8.50305 13.128 8.69805 13.2103 8.93205 13.375C9.29605 13.6003 9.61671 13.713 9.89405 13.713C10.2494 13.713 10.583 13.6307 10.895 13.466C11.207 13.3013 11.454 13.0803 11.636 12.803C11.8267 12.5257 11.922 12.2267 11.922 11.906C11.922 11.438 11.7617 11.0567 11.441 10.762C11.1204 10.4673 10.739 10.32 10.297 10.32C10.0977 10.32 9.92005 10.346 9.76405 10.398C9.60805 10.45 9.42171 10.528 9.20505 10.632C9.04905 10.71 8.92338 10.7663 8.82805 10.801C8.74138 10.8357 8.65038 10.853 8.55505 10.853C8.21705 10.853 7.97438 10.762 7.82705 10.58C7.68838 10.398 7.61905 10.1813 7.61905 9.93C7.61905 9.84333 7.62338 9.78267 7.63205 9.748L8.03505 6.524C8.06971 6.342 8.15638 6.19467 8.29505 6.082C8.44238 5.96067 8.61571 5.9 8.81505 5.9H12.572C12.78 5.9 12.9534 5.96933 13.092 6.108C13.2307 6.24667 13.3 6.42 13.3 6.628C13.3 6.82733 13.2307 6.99633 13.092 7.135C12.9534 7.265 12.78 7.33 12.572 7.33H9.34805L9.10105 9.215C9.26571 9.11967 9.47371 9.04167 9.72505 8.981C9.97638 8.92033 10.2147 8.89 10.44 8.89Z" fill="white"/>
</svg>
